# xmcd CD database file
#
# Track frame offsets:
#	150
#	14302
#	30717
#	43591
#	64041
#	80020
#	97338
#	116056
#	133986
#	147467
#	161030
#	177209
#	198443
#
# Disc length: 2845 seconds
#
# Revision: 0
# Processed by: cddbd v1.5.2PL0 Copyright (c) Steve Scherf et al.
# Submitted via: CDex 1.51
#
DISCID=c00b1b0d
DTITLE=Catherine Russell - Inside This Heart Of Mine
DYEAR=2010
DGENRE=Jazz
TTITLE0=Inside This Heart Of Mine
TTITLE1=All The Cats Join In
TTITLE2=We The People
TTITLE3=Troubled Waters
TTITLE4=As Long As I Live
TTITLE5=November
TTITLE6=Just Because You Can
TTITLE7=Long, Strong and Consecutive
TTITLE8=Close Your Eyes
TTITLE9=Quiet Whiskey
TTITLE10=Spoonful
TTITLE11=Slow As Molasses
TTITLE12=Struttin' With Some Barbeque
EXTD=YEAR: 2010
EXTT0=
EXTT1=
EXTT2=
EXTT3=
EXTT4=
EXTT5=
EXTT6=
EXTT7=
EXTT8=
EXTT9=
EXTT10=
EXTT11=
EXTT12=
PLAYORDER=
